<svg width="13" height="13" viewBox="0 0 13 13" fill="none" xmlns="http://www.w3.org/2000/svg">
<path fill-rule="evenodd" clip-rule="evenodd" d="M12.0904 5.41971L7.0184 0.239859C6.69632 -0.079953 6.04208 -0.079953 5.7203 0.239859C5.3983 0.559973 5.3983 1.0732 5.7203 1.39308L9.68381 5.18449H0.819811C0.36436 5.18449 0 5.54649 0 5.99926C0 6.45204 0.36436 6.81426 0.819811 6.81426H9.68381L5.7203 10.6057C5.3983 10.9256 5.43177 11.4153 5.7203 11.7586C5.97693 12.0639 6.23495 12.0639 6.44165 12.0639C6.64805 12.0639 6.86059 11.9855 7.0184 11.8225L12.0845 6.57874C12.4124 6.25305 12.4124 5.73363 12.0904 5.41971Z" fill="#00B04E"/>
</svg>
