<svg width="24" height="18" viewBox="0 0 24 18" fill="none" xmlns="http://www.w3.org/2000/svg">
<path fill-rule="evenodd" clip-rule="evenodd" d="M3.5219 0H20.6501C22.179 0 23.4218 1.24762 23.4172 2.77647V15.2283C23.4172 16.7572 22.1743 18 20.6453 18H3.5219C1.99281 18 0.75 16.7572 0.75 15.2283V2.7719C0.75 1.24281 1.99281 0 3.5219 0ZM22.1554 14.4783C22.1554 14.4849 22.1553 14.4915 22.1552 14.4982L22.1554 14.4783ZM22.1506 14.6044C22.0888 15.4448 21.4394 16.7338 20.6499 16.7338H3.52168C2.69154 16.7338 2.01622 16.0584 2.01622 15.2283V2.77643C2.01622 1.94629 2.69154 1.27098 3.52168 1.27098H20.645C21.4753 1.27098 22.1506 1.94629 22.1506 2.77643V14.6044ZM22.1506 14.6044C22.1532 14.5681 22.1548 14.5327 22.1552 14.4982L22.1506 15.2283V14.6044ZM19.171 5.67621L15.0454 9.22974L14.1028 10.0786L12.5222 11.495C12.405 11.6029 12.2501 11.659 12.1002 11.659C11.9499 11.659 11.7999 11.6075 11.6778 11.4996L10.1396 10.1256L9.18762 9.27183L4.99606 5.67621C4.73365 5.44171 4.71003 5.04299 4.94453 4.78035C5.17903 4.51764 5.57775 4.49431 5.84045 4.72881L10.4913 8.74191C10.5289 8.77011 10.5616 8.79825 10.5946 8.83102C10.5946 8.83583 10.5992 8.8404 10.6038 8.84498L12.0953 10.1771L18.3223 4.73362C18.5847 4.49912 18.9834 4.52245 19.2179 4.78035C19.4524 5.04299 19.4291 5.44171 19.171 5.67621Z" fill="#1D204F"/>
</svg>
