<svg width="20" height="20" viewBox="0 0 20 20" fill="none" xmlns="http://www.w3.org/2000/svg">
<path fill-rule="evenodd" clip-rule="evenodd" d="M9.99989 0C12.6725 0 15.1809 1.03967 17.0707 2.92929C18.9603 4.81913 20 7.32749 20 9.99989C20 12.6725 18.9603 15.1809 17.0707 17.0707C15.1809 18.9603 12.6725 20 9.99989 20C7.32749 20 4.81913 18.9603 2.92929 17.0707C1.03967 15.1809 0 12.6725 0 9.99989C0 7.32749 1.03967 4.81913 2.92929 2.92929C4.81913 1.03967 7.32749 0 9.99989 0ZM10.0001 18.8636C12.3655 18.8636 14.5919 17.9419 16.267 16.2668C19.7224 12.8114 19.7224 7.1886 16.267 3.73321C14.5919 2.05813 12.3655 1.13647 10.0001 1.13647C7.63492 1.13647 5.40849 2.05813 3.73341 3.73321C0.278022 7.1886 0.278022 12.8114 3.73341 16.2668C5.40849 17.9419 7.63492 18.8636 10.0001 18.8636ZM9.97375 6.78955C10.1715 6.78955 10.3217 6.73462 10.4242 6.62476C10.5267 6.51489 10.578 6.37756 10.578 6.21277C10.578 6.04797 10.5267 5.90881 10.4242 5.79529C10.3217 5.68176 10.1715 5.625 9.97375 5.625C9.776 5.625 9.62677 5.68176 9.52606 5.79529C9.42535 5.90881 9.375 6.04797 9.375 6.21277C9.375 6.37756 9.42535 6.51489 9.52606 6.62476C9.62677 6.73462 9.776 6.78955 9.97375 6.78955ZM10.4733 13.7329V7.78931H9.45703V13.7329H10.4733Z" fill="#00B04E"/>
</svg>
