<svg width="113" height="35" viewBox="0 0 113 35" fill="none" xmlns="http://www.w3.org/2000/svg">
<path d="M38.2394 0H29.3203V5.24074H38.2394V0Z" fill="#1D204F"/>
<path d="M4.64114 23.0124C7.19801 25.4537 10.5986 26.8138 14.1338 26.8089C15.8116 26.8089 17.3999 26.2324 17.3999 25.0793C17.3999 23.9262 16.1633 23.3497 13.2489 22.825C8.39441 21.9429 0.97435 20.8072 0.97435 13.4217C0.97435 8.43175 5.12543 3.88574 13.2056 3.88574C18.0168 3.88574 22.3438 5.25502 25.6992 7.9907L20.9312 14.3038C18.3714 12.3637 15.0592 11.3923 12.7184 11.3923C10.5132 11.3923 10.026 12.185 10.026 12.9374C10.026 14.0905 11.2194 14.4825 14.35 15.0129C19.2074 15.8518 26.4055 17.2643 26.4055 24.0617C26.4055 30.5535 21.5914 34.3068 13.6899 34.3068C7.42005 34.3068 3.13637 32.4504 0 29.6253L4.64114 23.0124Z" fill="#1D204F"/>
<path d="M29.3203 33.7855V7.50977H38.2394V33.7855H29.3203Z" fill="#1D204F"/>
<path d="M43.0068 28.9619V33.7847H47.8325L43.0068 28.9619Z" fill="#1D204F"/>
<path d="M67.0771 33.7854H75.9962V19.1846L67.0771 28.1036V33.7854Z" fill="#1D204F"/>
<path d="M102.832 33.7855L101.679 29.989H90.3726L89.2195 33.7855H79.5625L90.4245 4.33594H101.638L112.5 33.7855H102.832ZM96.0313 12.1942L92.6759 22.5719H99.3868L96.0313 12.1942Z" fill="#1D204F"/>
<path d="M75.9964 0.011531V12.459L67.0773 21.3809L54.6731 33.7852L48.4378 27.5499L48.4407 27.547L43.0068 22.1131V9.65126L43.0097 9.6455L54.676 21.3118L75.9848 0L75.9964 0.011531Z" fill="#00B04E"/>
</svg>
